<svg width="30" height="30" viewBox="0 0 30 30" fill="none" xmlns="http://www.w3.org/2000/svg">
<path d="M15 30C13.0294 30.0033 11.0777 29.6174 9.25664 28.8646C7.43563 28.1118 5.78127 27.0068 4.38853 25.6131C-1.46284 19.7631 -1.46284 10.2452 4.38853 4.39528C7.22298 1.56151 10.9914 0 15 0C19.0086 0 22.777 1.56031 25.6115 4.39528C31.4628 10.2452 31.4628 19.7631 25.6115 25.6131C24.2187 27.0068 22.5644 28.1118 20.7434 28.8646C18.9224 29.6174 16.9706 30.0033 15 30ZM6.08608 23.916C11.001 28.8297 18.999 28.8297 23.9139 23.916C26.2946 21.5347 27.6055 18.3697 27.6055 15.0042C27.6055 11.6387 26.2946 8.47369 23.9139 6.09241C21.5333 3.71114 18.3675 2.40048 15 2.40048C11.6325 2.40048 8.46793 3.71234 6.08608 6.09241C3.70423 8.47249 2.39445 11.6375 2.39445 15.0042C2.39445 18.3709 3.70543 21.5347 6.08608 23.916Z" fill="url(#paint0_linear_1126_1556)"/>
<path d="M16.8618 21C16.7125 21.0002 16.5646 20.969 16.4267 20.9084C16.2888 20.8477 16.1635 20.7588 16.0581 20.6466L10.8333 15.1027C10.7277 14.9908 10.6438 14.8579 10.5866 14.7115C10.5294 14.5652 10.5 14.4083 10.5 14.2499C10.5 14.0915 10.5294 13.9346 10.5866 13.7883C10.6438 13.642 10.7277 13.509 10.8333 13.3971L16.0581 7.85324C16.1636 7.74125 16.2889 7.65242 16.4268 7.59181C16.5647 7.5312 16.7126 7.5 16.8618 7.5C17.0111 7.5 17.1589 7.5312 17.2968 7.59181C17.4347 7.65242 17.56 7.74125 17.6655 7.85324C17.7711 7.96524 17.8548 8.09819 17.9119 8.24452C17.9691 8.39084 17.9985 8.54767 17.9985 8.70605C17.9985 8.86443 17.9691 9.02126 17.9119 9.16759C17.8548 9.31391 17.7711 9.44687 17.6655 9.55886L13.2445 14.2499L17.6655 18.941C17.825 19.1094 17.9338 19.3244 17.9779 19.5585C18.0221 19.7927 17.9997 20.0355 17.9136 20.2561C17.8274 20.4767 17.6815 20.6652 17.4942 20.7976C17.307 20.9301 17.0869 21.0005 16.8618 21Z" fill="url(#paint1_linear_1126_1556)"/>
<defs>
<linearGradient id="paint0_linear_1126_1556" x1="28.9691" y1="10.2577" x2="8.0232" y2="3.5043" gradientUnits="userSpaceOnUse">
<stop stop-color="#25385A"/>
<stop offset="1" stop-color="#005564"/>
</linearGradient>
<linearGradient id="paint1_linear_1126_1556" x1="17.7423" y1="12.116" x2="12.1411" y2="11.1127" gradientUnits="userSpaceOnUse">
<stop stop-color="#25385A"/>
<stop offset="1" stop-color="#005564"/>
</linearGradient>
</defs>
</svg>
