<svg width="33" height="33" viewBox="0 0 33 33" fill="none" xmlns="http://www.w3.org/2000/svg">
<path d="M16.5107 31.8493C8.03344 31.8551 1.15668 24.9877 1.15085 16.5104C1.14512 8.03332 8.01247 1.15651 16.4895 1.15065C16.4896 1.15065 16.4897 1.15065 16.4898 1.15065L16.4901 1.65065L16.5107 31.8493ZM16.5107 31.8493C24.9879 31.8435 31.8554 24.9668 31.8496 16.4896C31.8468 12.4197 30.2278 8.51758 27.3486 5.64115L16.5107 31.8493ZM16.4909 32.5H16.4904C7.65387 32.4947 0.494727 25.327 0.500003 16.4904C0.505278 7.65387 7.67302 0.494728 16.5096 0.500003C25.3461 0.505278 32.5053 7.67301 32.5 16.5096C32.4975 20.752 30.8101 24.8198 27.8089 27.8185L27.8085 27.8188C24.8088 30.8223 20.7359 32.5069 16.4909 32.5ZM17.3035 16.1464L16.95 16.5L17.3035 16.8535L22.5552 22.1052C22.5553 22.1053 22.5553 22.1053 22.5553 22.1053C22.6824 22.2325 22.6823 22.4384 22.5552 22.5654C22.4943 22.6263 22.4116 22.6606 22.3252 22.6606H22.3247C22.2389 22.6607 22.1566 22.6266 22.096 22.5658L22.0954 22.5652L16.8437 17.3135L16.4901 16.9599L16.1366 17.3135L10.8848 22.5652L10.8842 22.5658C10.8237 22.6266 10.7413 22.6607 10.6555 22.6606H10.655C10.4754 22.6606 10.3297 22.515 10.3296 22.3354C10.3297 22.2489 10.364 22.1662 10.4249 22.1053L15.6766 16.8535L16.0302 16.5L15.6766 16.1464L10.4284 10.8983C10.428 10.8978 10.4275 10.8973 10.427 10.8969C10.3027 10.7684 10.3053 10.5636 10.433 10.4384L10.0831 10.0813L10.433 10.4384C10.5591 10.3149 10.7605 10.3145 10.887 10.437C10.8875 10.4375 10.888 10.4379 10.8884 10.4384L16.1366 15.6865L16.4901 16.04L16.8437 15.6865L22.0918 10.4383C22.0923 10.4378 22.0928 10.4374 22.0933 10.4369C22.2217 10.3126 22.4265 10.3152 22.5517 10.4429L22.5518 10.443C22.6753 10.569 22.6757 10.7703 22.5532 10.8968C22.5527 10.8973 22.5522 10.8978 22.5518 10.8982L17.3035 16.1464Z" fill="white" stroke="white"/>
</svg>
