<svg width="30" height="30" viewBox="0 0 30 30" fill="none" xmlns="http://www.w3.org/2000/svg">
<circle cx="15" cy="15" r="14" stroke="url(#paint0_linear_1337_2576)" stroke-width="2"/>
<path d="M14.9943 13.2059C14.7587 13.2059 14.5254 13.2523 14.3077 13.3425C14.0901 13.4326 13.8923 13.5648 13.7257 13.7314C13.5591 13.898 13.4269 14.0958 13.3368 14.3134C13.2466 14.5311 13.2002 14.7644 13.2002 15C13.2002 15.2356 13.2466 15.4689 13.3368 15.6866C13.4269 15.9042 13.5591 16.102 13.7257 16.2686C13.8923 16.4352 14.0901 16.5674 14.3077 16.6575C14.5254 16.7477 14.7587 16.7941 14.9943 16.7941C15.4701 16.794 15.9264 16.6049 16.2628 16.2683C16.5992 15.9318 16.7881 15.4754 16.788 14.9996C16.7879 14.5238 16.5988 14.0675 16.2622 13.7311C15.9257 13.3947 15.4693 13.2058 14.9935 13.2059H14.9943ZM14.9943 11.0866C15.2298 11.0865 15.463 11.04 15.6805 10.9497C15.898 10.8595 16.0957 10.7273 16.2621 10.5607C16.4285 10.3942 16.5605 10.1964 16.6506 9.97879C16.7406 9.76118 16.7869 9.52797 16.7868 9.29247C16.7867 9.05697 16.7402 8.8238 16.6499 8.60627C16.5597 8.38874 16.4275 8.19111 16.2609 8.02466C16.0943 7.85822 15.8966 7.72622 15.679 7.63619C15.4614 7.54617 15.2282 7.49989 14.9927 7.5C14.5171 7.50022 14.061 7.68936 13.7249 8.02582C13.3887 8.36228 13.2 8.81849 13.2002 9.2941C13.2004 9.76971 13.3896 10.2257 13.726 10.5619C14.0625 10.8981 14.5187 11.0868 14.9943 11.0866ZM14.9943 18.9118C14.5185 18.9118 14.0621 19.1008 13.7257 19.4373C13.3892 19.7737 13.2002 20.2301 13.2002 20.7059C13.2002 21.1817 13.3892 21.6381 13.7257 21.9745C14.0621 22.311 14.5185 22.5 14.9943 22.5C15.4701 22.5 15.9265 22.311 16.2629 21.9745C16.5994 21.6381 16.7884 21.1817 16.7884 20.7059C16.7884 20.2301 16.5994 19.7737 16.2629 19.4373C15.9265 19.1008 15.4701 18.9118 14.9943 18.9118Z" fill="url(#paint1_linear_1337_2576)"/>
<defs>
<linearGradient id="paint0_linear_1337_2576" x1="28.9691" y1="10.2577" x2="8.0232" y2="3.5043" gradientUnits="userSpaceOnUse">
<stop stop-color="#25385A"/>
<stop offset="1" stop-color="#005564"/>
</linearGradient>
<linearGradient id="paint1_linear_1337_2576" x1="16.6651" y1="12.6289" x2="13.9157" y2="12.4168" gradientUnits="userSpaceOnUse">
<stop stop-color="#25385A"/>
<stop offset="1" stop-color="#005564"/>
</linearGradient>
</defs>
</svg>
