<svg width="33" height="33" viewBox="0 0 33 33" fill="none" xmlns="http://www.w3.org/2000/svg">
<circle cx="16.5" cy="16.5" r="15.5" stroke="white" stroke-width="2"/>
<path d="M24.6587 11.5334L21.7074 8.63754C21.3223 8.28253 20.8175 8.07883 20.2893 8.06519C19.761 8.05154 19.246 8.22892 18.8424 8.56356L9.14852 18.0756C8.80036 18.4201 8.58359 18.8716 8.53457 19.3544L8.07142 23.7616C8.05691 23.9164 8.07738 24.0725 8.13137 24.2186C8.18537 24.3648 8.27155 24.4974 8.38378 24.6071C8.48442 24.7051 8.60378 24.7826 8.73501 24.8352C8.86624 24.8878 9.00676 24.9144 9.14852 24.9136H9.24546L13.7369 24.512C14.229 24.4639 14.6891 24.2512 15.0402 23.9096L24.7341 14.3976C25.1103 14.0076 25.3137 13.4871 25.2995 12.9502C25.2854 12.4133 25.055 11.9039 24.6587 11.5334ZM13.5431 22.3982L10.3118 22.6942L10.6026 19.5235L16.6882 13.6261L19.5963 16.4797L13.5431 22.3982ZM20.9966 15.0634L18.11 12.231L20.2103 10.1172L23.1508 13.0025L20.9966 15.0634Z" fill="white"/>
</svg>
