<svg width="20" height="16" viewBox="0 0 20 16" fill="none" xmlns="http://www.w3.org/2000/svg">
<path d="M9.98816 2.96436C11.6581 2.9576 13.2961 3.38584 14.7128 4.19959C16.1295 5.01333 17.2671 6.17936 17.9941 7.56293C17.4681 8.56154 16.7228 9.44891 15.8053 10.169L17.1091 11.3471C18.3883 10.3106 19.3795 9.00753 20 7.54664C18.9933 5.20718 17.0567 3.30808 14.5835 2.23514C12.1103 1.16219 9.28597 0.995852 6.68433 1.76992L8.18285 3.14895C8.77647 3.03243 9.38123 2.9706 9.98816 2.96436Z" fill="#005564"/>
<path d="M9.01475 3.91992L10.8968 5.64642L12.0767 6.73227L13.9528 8.4642C14.1124 7.90967 14.1302 7.32866 14.0048 6.76674C13.8794 6.20481 13.6143 5.67726 13.2302 5.22544C12.8461 4.77363 12.3535 4.40984 11.791 4.16261C11.2286 3.91538 10.6115 3.79143 9.9882 3.80048C9.65949 3.80173 9.33233 3.84187 9.01475 3.91992ZM0.914454 1.18901L3.35103 3.42586C1.85144 4.5037 0.694082 5.93254 0 7.56295C1.04063 10.0007 3.09087 11.9582 5.69975 13.0048C8.30863 14.0515 11.2625 14.1016 13.9115 13.1442L17.0147 16L18.2891 14.8219L2.19469 0L0.914454 1.18901ZM4.63717 4.61486L6.23009 6.07533C6.00937 6.53721 5.8968 7.03667 5.8997 7.54123C5.89798 8.15916 6.06287 8.76784 6.37959 9.31272C6.69632 9.8576 7.15499 10.3217 7.71451 10.6633C8.27402 11.005 8.9169 11.2135 9.58554 11.2703C10.2542 11.3271 10.9277 11.2304 11.5457 10.9888L11.5811 11.0214L12.472 11.8412C11.6591 12.0483 10.8198 12.1542 9.9764 12.1561C8.30893 12.1585 6.67439 11.729 5.25967 10.9167C3.84495 10.1045 2.70716 8.94224 1.9764 7.56295C2.6004 6.40217 3.51176 5.39239 4.63717 4.61486Z" fill="#005564"/>
</svg>
