<svg width="35" height="35" viewBox="0 0 35 35" fill="none" xmlns="http://www.w3.org/2000/svg">
<circle cx="17.5" cy="17.5" r="16.5" stroke="#F1F0E8" stroke-width="2"/>
<path d="M26.9226 21.995C26.713 21.6481 26.4584 21.3011 26.1739 20.9334C25.4969 20.1499 25.0276 19.2302 24.8037 18.2481L24.4893 14.1544C24.3021 10.9834 22.303 7.77777 18.3272 7.77777H16.665C12.6893 7.77777 10.6752 10.9834 10.4731 14.1474L10.1586 18.2481C9.93569 19.2389 9.46655 20.1678 8.78842 20.9611C8.53385 21.3219 8.27928 21.655 8.10708 21.9672C7.92226 22.1971 7.81032 22.4702 7.78387 22.7558C7.75741 23.0414 7.81749 23.3282 7.95733 23.5839C8.12049 23.8525 8.36085 24.0738 8.65166 24.2232C8.94248 24.3727 9.27234 24.4444 9.60453 24.4304H15.3847C15.2616 24.7449 15.222 25.0821 15.2694 25.4137C15.3167 25.7453 15.4496 26.0614 15.6567 26.3353C15.8639 26.6092 16.1392 26.8329 16.4594 26.9872C16.7796 27.1416 17.1352 27.2222 17.4961 27.2222C17.8571 27.2222 18.2127 27.1416 18.5329 26.9872C18.853 26.8329 19.1284 26.6092 19.3355 26.3353C19.5427 26.0614 19.6756 25.7453 19.7229 25.4137C19.7703 25.0821 19.7307 24.7449 19.6075 24.4304H25.3877C25.723 24.4417 26.055 24.3658 26.3461 24.2113C26.6372 24.0568 26.8758 23.8299 27.0349 23.5562C27.1749 23.3121 27.2385 23.0366 27.2187 22.7608C27.1988 22.4849 27.0963 22.2197 26.9226 21.995ZM18.2449 25.1243C18.2449 25.2615 18.2009 25.3957 18.1187 25.5098C18.0364 25.6239 17.9195 25.7128 17.7827 25.7654C17.6458 25.8179 17.4953 25.8316 17.3501 25.8048C17.2048 25.7781 17.0714 25.712 16.9667 25.6149C16.862 25.5179 16.7907 25.3943 16.7618 25.2597C16.7329 25.1251 16.7477 24.9856 16.8044 24.8588C16.8611 24.732 16.957 24.6236 17.0802 24.5474C17.2033 24.4711 17.348 24.4304 17.4961 24.4304C17.6947 24.4304 17.8851 24.5036 18.0256 24.6337C18.166 24.7638 18.2449 24.9403 18.2449 25.1243ZM25.7321 22.9248C25.7321 22.9803 25.6049 23.0427 25.4177 23.0427H9.60453C9.41735 23.0427 9.32002 22.9803 9.29007 22.9248C9.26012 22.8693 9.29007 22.7929 9.36494 22.6819C9.5671 22.3627 9.7992 22.0297 10.0388 21.6966C10.7875 20.6975 11.5363 19.5595 11.6486 18.3453L11.9705 14.2446C12.1277 11.8993 13.453 9.16549 16.665 9.16549H18.3272C21.5393 9.16549 22.8645 11.8993 23.0217 14.2515L23.3437 18.3453C23.4335 19.5734 24.2347 20.6975 24.9834 21.6966C25.223 22.0297 25.4551 22.3905 25.6947 22.7444C25.7185 22.7682 25.7347 22.7977 25.7413 22.8296C25.7479 22.8615 25.7448 22.8945 25.7321 22.9248Z" fill="#F1F0E8"/>
</svg>
