<svg width="20" height="14" viewBox="0 0 20 14" fill="none" xmlns="http://www.w3.org/2000/svg">
<path d="M10.0265 1.92272e-05C7.86338 -0.00412427 5.7493 0.66152 3.96052 1.90998C2.17175 3.15844 0.791456 4.93166 0 6.99795C0.787799 9.06165 2.16341 10.8337 3.9473 12.0828C5.7312 13.3319 7.84053 14 10 14C12.1595 14 14.2688 13.3319 16.0527 12.0828C17.8366 10.8337 19.2122 9.06165 20 6.99795C19.2125 4.93982 17.8406 3.17212 16.0621 1.92426C14.2837 0.676402 12.1808 0.00598725 10.0265 1.92272e-05ZM10.0265 12.1072C8.35342 12.1176 6.71171 11.6408 5.29194 10.7322C3.87217 9.82357 2.73254 8.52034 2.00531 6.97374C2.74043 5.43425 3.88152 4.13725 5.29892 3.23013C6.71633 2.323 8.35322 1.84212 10.0236 1.84212C11.694 1.84212 13.3309 2.323 14.7483 3.23013C16.1657 4.13725 17.3068 5.43425 18.0419 6.97374C17.3151 8.5194 16.1764 9.82201 14.7577 10.7306C13.3391 11.6391 11.6987 12.1164 10.0265 12.1072Z" fill="url(#paint0_linear_770_2896)"/>
<path d="M10.0029 11.1991C12.2635 11.1991 14.096 9.31818 14.096 6.99793C14.096 4.67769 12.2635 2.79675 10.0029 2.79675C7.74225 2.79675 5.90967 4.67769 5.90967 6.99793C5.90967 9.31818 7.74225 11.1991 10.0029 11.1991Z" fill="url(#paint1_linear_770_2896)"/>
<defs>
<linearGradient id="paint0_linear_770_2896" x1="19.3127" y1="4.78694" x2="6.59525" y2="-1.07077" gradientUnits="userSpaceOnUse">
<stop stop-color="#25385A"/>
<stop offset="1" stop-color="#005564"/>
</linearGradient>
<linearGradient id="paint1_linear_770_2896" x1="13.8147" y1="5.66972" x2="8.07159" y2="3.8656" gradientUnits="userSpaceOnUse">
<stop stop-color="#25385A"/>
<stop offset="1" stop-color="#005564"/>
</linearGradient>
</defs>
</svg>
